HIERARCHY
ROOT Hips
{
  OFFSET 5.80788e-005 67.184 3.4734
  CHANNELS 6 Xposition Yposition Zposition Zrotation Xrotation Yrotation
  JOINT Chest
  {
    OFFSET 0 8.7983 -4.7612
    CHANNELS 3 Zrotation Xrotation Yrotation
    JOINT Chest2
    {
      OFFSET 0 8.0291 0.4195
      CHANNELS 3 Zrotation Xrotation Yrotation
      JOINT Chest3
      {
        OFFSET 0 9.9351 -2.2114
        CHANNELS 3 Zrotation Xrotation Yrotation
        JOINT Neck
        {
          OFFSET 0 22.3885 -0.4656
          CHANNELS 3 Zrotation Xrotation Yrotation
          JOINT Head
          {
            OFFSET -0.0001 12.643 3.4389
            CHANNELS 3 Zrotation Xrotation Yrotation
            End Site
            {
              OFFSET 0.0001 17.6655 0.5274
            }
          }
        }
        JOINT LeftCollar
        {
          OFFSET 2.2603 21.606 7.4023
          CHANNELS 3 Zrotation Xrotation Yrotation
          JOINT LeftShoulder
          {
            OFFSET 13.5163 -1.1332 -5.0146
            CHANNELS 3 Zrotation Xrotation Yrotation
            JOINT LeftElbow
            {
              OFFSET -0.0995 -28.05 -0.2431
              CHANNELS 3 Zrotation Xrotation Yrotation
              JOINT LeftWrist
              {
                OFFSET 0.0679 -23.3996 -0.1402
                CHANNELS 3 Zrotation Xrotation Yrotation
                JOINT LeftFinger1
                {
                  OFFSET 0.7932 -9.069 2.5189
                  CHANNELS 3 Zrotation Xrotation Yrotation
                  JOINT LeftFinger11
                  {
                    OFFSET -0.8272 -3.3923 0.5977
                    CHANNELS 3 Zrotation Xrotation Yrotation
                    JOINT LeftFinger12
                    {
                      OFFSET -0.5649 -2.3158 0.4082
                      CHANNELS 3 Zrotation Xrotation Yrotation
                      End Site
                      {
                        OFFSET -0.4919 -1.6479 0.2673
                      }
                    }
                  }
                }
                JOINT LeftFinger2
                {
                  OFFSET 0.9159 -9.2044 0.2193
                  CHANNELS 3 Zrotation Xrotation Yrotation
                  JOINT LeftFinger21
                  {
                    OFFSET 0.0117 -4.1944 -0.0248
                    CHANNELS 3 Zrotation Xrotation Yrotation
                    JOINT LeftFinger22
                    {
                      OFFSET 0.0071 -2.3249 -0.0142
                      CHANNELS 3 Zrotation Xrotation Yrotation
                      End Site
                      {
                        OFFSET -0.1475 -2.0882 0.0028
                      }
                    }
                  }
                }
                JOINT LeftFinger3
                {
                  OFFSET 0.6113 -8.7231 -2.0637
                  CHANNELS 3 Zrotation Xrotation Yrotation
                  JOINT LeftFinger31
                  {
                    OFFSET -0.1927 -3.8059 -0.2383
                    CHANNELS 3 Zrotation Xrotation Yrotation
                    JOINT LeftFinger32
                    {
                      OFFSET -0.1091 -2.1688 -0.1362
                      CHANNELS 3 Zrotation Xrotation Yrotation
                      End Site
                      {
                        OFFSET -0.2358 -1.9176 -0.0906
                      }
                    }
                  }
                }
                JOINT LeftFinger4
                {
                  OFFSET -0.6151 -8.0947 -3.5641
                  CHANNELS 3 Zrotation Xrotation Yrotation
                  JOINT LeftFinger41
                  {
                    OFFSET -0.4882 -2.341 -0.6462
                    CHANNELS 3 Zrotation Xrotation Yrotation
                    JOINT LeftFinger42
                    {
                      OFFSET -0.3575 -1.7167 -0.4742
                      CHANNELS 3 Zrotation Xrotation Yrotation
                      End Site
                      {
                        OFFSET -0.4187 -1.5237 -0.3496
                      }
                    }
                  }
                }
                JOINT LeftFinger0
                {
                  OFFSET -1.42 -1.8761 1.4223
                  CHANNELS 3 Zrotation Xrotation Yrotation
                  JOINT LeftFinger01
                  {
                    OFFSET -1.1471 -3.4929 2.6334
                    CHANNELS 3 Zrotation Xrotation Yrotation
                    JOINT LeftFinger02
                    {
                      OFFSET -0.823 -2.3 1.6571
                      CHANNELS 3 Zrotation Xrotation Yrotation
                      End Site
                      {
                        OFFSET -0.5822 -1.6914 1.1582
                      }
                    }
                  }
                }
              }
            }
          }
        }
        JOINT RightCollar
        {
          OFFSET -2.2603 21.606 7.4023
          CHANNELS 3 Zrotation Xrotation Yrotation
          JOINT RightShoulder
          {
            OFFSET -13.5187 -1.1334 -5.0155
            CHANNELS 3 Zrotation Xrotation Yrotation
            JOINT RightElbow
            {
              OFFSET 0.0994 -28.0499 -0.2431
              CHANNELS 3 Zrotation Xrotation Yrotation
              JOINT RightWrist
              {
                OFFSET -0.0679 -23.3996 -0.1402
                CHANNELS 3 Zrotation Xrotation Yrotation
                JOINT RightFinger1
                {
                  OFFSET -0.7932 -9.0691 2.5189
                  CHANNELS 3 Zrotation Xrotation Yrotation
                  JOINT RightFinger11
                  {
                    OFFSET 0.8272 -3.3923 0.5977
                    CHANNELS 3 Zrotation Xrotation Yrotation
                    JOINT RightFinger12
                    {
                      OFFSET 0.565 -2.3158 0.4082
                      CHANNELS 3 Zrotation Xrotation Yrotation
                      End Site
                      {
                        OFFSET 0.4919 -1.6479 0.2673
                      }
                    }
                  }
                }
                JOINT RightFinger2
                {
                  OFFSET -0.916 -9.2044 0.2193
                  CHANNELS 3 Zrotation Xrotation Yrotation
                  JOINT RightFinger21
                  {
                    OFFSET -0.0117 -4.1944 -0.0248
                    CHANNELS 3 Zrotation Xrotation Yrotation
                    JOINT RightFinger22
                    {
                      OFFSET -0.0071 -2.3249 -0.0142
                      CHANNELS 3 Zrotation Xrotation Yrotation
                      End Site
                      {
                        OFFSET 0.1475 -2.0882 0.0028
                      }
                    }
                  }
                }
                JOINT RightFinger3
                {
                  OFFSET -0.6113 -8.7231 -2.0637
                  CHANNELS 3 Zrotation Xrotation Yrotation
                  JOINT RightFinger31
                  {
                    OFFSET 0.1927 -3.8059 -0.2383
                    CHANNELS 3 Zrotation Xrotation Yrotation
                    JOINT RightFinger32
                    {
                      OFFSET 0.1091 -2.1688 -0.1362
                      CHANNELS 3 Zrotation Xrotation Yrotation
                      End Site
                      {
                        OFFSET 0.2358 -1.9176 -0.0906
                      }
                    }
                  }
                }
                JOINT RightFinger4
                {
                  OFFSET 0.6151 -8.0947 -3.564
                  CHANNELS 3 Zrotation Xrotation Yrotation
                  JOINT RightFinger41
                  {
                    OFFSET 0.4882 -2.341 -0.6462
                    CHANNELS 3 Zrotation Xrotation Yrotation
                    JOINT RightFinger42
                    {
                      OFFSET 0.3574 -1.7166 -0.4742
                      CHANNELS 3 Zrotation Xrotation Yrotation
                      End Site
                      {
                        OFFSET 0.4187 -1.5237 -0.3496
                      }
                    }
                  }
                }
                JOINT RightFinger0
                {
                  OFFSET 1.4199 -1.8761 1.4221
                  CHANNELS 3 Zrotation Xrotation Yrotation
                  JOINT RightFinger01
                  {
                    OFFSET 1.1472 -3.4929 2.6336
                    CHANNELS 3 Zrotation Xrotation Yrotation
                    JOINT RightFinger02
                    {
                      OFFSET 0.8229 -2.3 1.6571
                      CHANNELS 3 Zrotation Xrotation Yrotation
                      End Site
                      {
                        OFFSET 0.5822 -1.6914 1.1582
                      }
                    }
                  }
                }
              }
            }
          }
        }
      }
    }
  }
  JOINT RightHip
  {
    OFFSET -9.412 3.9771 -0.7758
    CHANNELS 3 Zrotation Xrotation Yrotation
    JOINT RightKnee
    {
      OFFSET -0.7531 -40.938 0
      CHANNELS 3 Zrotation Xrotation Yrotation
      JOINT RightAnkle
      {
        OFFSET 0 -40.1986 0
        CHANNELS 3 Zrotation Xrotation Yrotation
        JOINT RightToe
        {
          OFFSET 0 -4.4182 9.239
          CHANNELS 3 Zrotation Xrotation Yrotation
          End Site
          {
            OFFSET 0 0 6.1981
          }
        }
      }
    }
  }
  JOINT LeftHip
  {
    OFFSET 9.4119 3.9773 -0.7758
    CHANNELS 3 Zrotation Xrotation Yrotation
    JOINT LeftKnee
    {
      OFFSET 0.7532 -40.9383 0
      CHANNELS 3 Zrotation Xrotation Yrotation
      JOINT LeftAnkle
      {
        OFFSET 0 -40.1986 0
        CHANNELS 3 Zrotation Xrotation Yrotation
        JOINT LeftToe
        {
          OFFSET 0 -4.4182 9.239
          CHANNELS 3 Zrotation Xrotation Yrotation
          End Site
          {
            OFFSET 0 0 6.1981
          }
        }
      }
    }
  }
}
MOTION
Frames:	4
Frame Time:	0.0333333
0.0636278 1.65825 8.13869 180 -89.9981 180 -0.11812 9.36431 -0.11863 -0.220802 18.7289 -0.221929 -0.220802 18.729 -0.221929 2.02822e-006 -13.3521 1.72332e-006 1.23353e-008 -8.12677 -1.15782e-007 -14.6503 -5.63481 -6.95642 14.45 -16.6077 25.9616 -41.2858 -26.1996 -59.2982 -32.7276 32.6501 -14.7653 -1.32417e-031 -4.77083e-015 -1.59028e-015 6.36111e-015 -3.18055e-015 -3.18055e-015 9.54166e-015 -1.43125e-014 4.77083e-015 -1.32417e-031 -4.77083e-015 -1.59028e-015 -0.0128226 0.00232762 8.20084e-005 -3.18055e-015 -3.18055e-015 1.59028e-015 -1.32417e-031 -4.77083e-015 -1.59028e-015 -0.0160737 0.00299363 0.000855388 3.18055e-015 -6.36111e-015 1.59028e-015 -1.32417e-031 -4.77083e-015 -1.59028e-015 -0.0125829 0.00312171 0.00282043 9.54166e-015 0 -6.36111e-015 -1.32417e-031 -4.77083e-015 -1.59028e-015 6.36111e-015 -3.18055e-015 -3.18055e-015 9.54166e-015 -1.43125e-014 4.77083e-015 -1.43854 0.726621 -1.56489 -6.47113 34.3901 -18.449 29.8863 -72.5917 56.2506 5.47266 1.36248 23.9037 1.04914e-006 -7.1469e-007 2.56706e-006 -5.50833e-006 1.45517e-005 6.5686e-007 1.63937e-006 -1.61207e-006 4.7755e-007 1.04914e-006 -7.1469e-007 2.56706e-006 0.0129335 0.00233549 -8.46383e-005 -3.47873e-016 -6.36111e-015 -9.26834e-015 1.04914e-006 -7.1469e-007 2.56706e-006 0.0163299 0.00304086 -0.00087018 -1.49089e-015 -3.18055e-015 -2.70844e-015 1.04914e-006 -7.1469e-007 2.56706e-006 0.0146142 0.00369942 -0.00327137 8.94531e-016 0 4.94477e-015 1.04914e-006 -7.1469e-007 2.56706e-006 -5.50833e-006 1.45517e-005 6.5686e-007 1.63937e-006 -1.61207e-006 4.7755e-007 -35.0918 -30.9662 -23.8046 -91.5597 80.9195 88.6934 -7.64909 13.0116 -1.81019 2.68871e-007 -1.36585e-006 2.82157e-006 25.2525 3.25894 1.17636 -1.99712 6.61822 0.531539 8.72427 13.2052 0.917159 1.76556e-031 3.18055e-015 -3.18055e-015 
0.0636278 1.65824 8.13869 -179.999 -89.9981 -179.999 -0.117798 9.31933 -0.118918 -0.220152 18.639 -0.222629 -0.220152 18.639 -0.22263 2.40942e-006 -13.1951 2.08595e-006 -7.06779e-008 -8.21255 -7.83509e-008 -14.9217 -5.41073 -7.10943 14.6587 -16.6613 26.0455 -40.8335 -26.094 -59.0784 -32.6481 32.3261 -14.9725 6.36111e-015 1.11319e-014 -9.54166e-015 1.27222e-014 6.36111e-015 -7.95139e-015 9.84213e-007 -4.85645e-007 1.09058e-006 6.36111e-015 1.11319e-014 -9.54166e-015 -0.0128268 0.00232735 8.45895e-005 -2.45268e-006 -2.92525e-006 8.61149e-007 6.36111e-015 1.11319e-014 -9.54166e-015 -0.0160379 0.00299416 0.00086105 6.36111e-015 1.27222e-014 -1.59028e-015 6.36111e-015 1.11319e-014 -9.54166e-015 -0.0126073 0.00312821 0.00283724 1.76556e-031 -3.18055e-015 3.18055e-015 6.36111e-015 1.11319e-014 -9.54166e-015 1.27222e-014 6.36111e-015 -7.95139e-015 9.84213e-007 -4.85645e-007 1.09058e-006 -1.43854 0.726629 -1.56488 -6.47111 34.3901 -18.449 29.8862 -72.5917 56.2505 5.47265 1.3625 23.9037 3.28103e-006 -1.46952e-006 9.46881e-007 3.47873e-015 0 -1.24489e-014 8.94531e-016 -6.36111e-015 -6.41081e-015 3.28103e-006 -1.46952e-006 9.46881e-007 0.0129508 0.0023237 -7.87847e-005 -1.88845e-015 9.54166e-015 -8.84592e-015 3.28103e-006 -1.46952e-006 9.46881e-007 0.0162959 0.00301814 -0.0008672 3.97569e-016 -3.18055e-015 -1.78906e-015 3.28103e-006 -1.46952e-006 9.46881e-007 0.0145932 0.00368005 -0.00326817 -7.34669e-006 -1.06434e-005 6.59242e-006 3.28103e-006 -1.46952e-006 9.46881e-007 3.47873e-015 0 -1.24489e-014 8.94531e-016 -6.36111e-015 -6.41081e-015 -35.0918 -30.9662 -23.8045 -91.56 80.9194 88.6936 -7.64905 13.0116 -1.8102 -1.59028e-015 -1.86965e-006 3.18055e-015 25.2525 3.25881 1.17637 -1.99712 6.61842 0.531529 8.72426 13.2051 0.917178 8.60399e-006 -1.91008e-005 2.4146e-006 
0.0636278 1.65824 8.13869 -179.998 -89.9981 -179.998 -0.117476 9.27434 -0.119206 -0.219506 18.5489 -0.22333 -0.219506 18.549 -0.22333 2.0605e-006 -13.038 1.74716e-006 -1.10627e-007 -8.29829 -4.52812e-008 -15.1923 -5.18591 -7.26132 14.8677 -16.7146 26.1296 -40.3822 -25.9868 -58.8596 -32.5701 32.0019 -15.1786 -1.32417e-031 4.77083e-015 1.59028e-015 9.54166e-015 0 1.59028e-015 8.82781e-032 3.18055e-015 -1.59028e-015 -1.32417e-031 4.77083e-015 1.59028e-015 -0.0128154 0.00233572 0.000110422 2.64834e-031 9.54166e-015 -1.59028e-015 -1.32417e-031 4.77083e-015 1.59028e-015 -0.0160456 0.00300769 0.000871418 3.18055e-015 -1.59028e-015 -6.36111e-015 -1.32417e-031 4.77083e-015 1.59028e-015 -0.0125677 0.00311991 0.0028355 -0 0 3.18055e-015 -1.32417e-031 4.77083e-015 1.59028e-015 9.54166e-015 0 1.59028e-015 8.82781e-032 3.18055e-015 -1.59028e-015 -1.43854 0.726621 -1.56488 -6.47109 34.3901 -18.449 29.8862 -72.5917 56.2505 5.47266 1.36245 23.9037 9.14617e-006 1.26446e-005 -6.09991e-007 1.88845e-015 0 -2.60905e-015 2.08724e-015 0 -2.11209e-015 9.14617e-006 1.26446e-005 -6.09991e-007 0.0129373 0.00231068 -8.15745e-005 5.65144e-007 -2.32971e-006 -2.09694e-006 9.14617e-006 1.26446e-005 -6.09991e-007 0.0163413 0.00300646 -0.000862219 4.07923e-006 2.28136e-005 -7.54044e-006 9.14617e-006 1.26446e-005 -6.09991e-007 0.0145637 0.00366833 -0.00326039 2.88238e-015 -6.36111e-015 9.51682e-015 9.14617e-006 1.26446e-005 -6.09991e-007 1.88845e-015 0 -2.60905e-015 2.08724e-015 0 -2.11209e-015 -35.0918 -30.9662 -23.8045 -91.56 80.9194 88.6936 -7.64905 13.0116 -1.8102 -3.18055e-015 -1.86965e-006 3.18055e-015 25.2525 3.25881 1.17637 -1.99712 6.61842 0.531529 8.72426 13.2051 0.917178 8.60399e-006 -1.91008e-005 2.4146e-006 
0.0636278 1.65824 8.13869 179.998 -89.9981 179.998 -0.117156 9.22935 -0.119495 -0.218863 18.459 -0.224031 -0.218864 18.459 -0.224031 2.05924e-006 -12.881 1.85542e-006 -3.13245e-008 -8.38403 -9.99955e-008 -15.4623 -4.96041 -7.41206 15.0767 -16.7676 26.2139 -39.9316 -25.878 -58.6419 -32.4938 31.6775 -15.3833 3.17372e-006 4.76312e-006 8.85515e-006 -1.27543e-005 -8.21938e-006 -6.35722e-006 1.27222e-014 -1.59028e-015 -7.95139e-015 3.17372e-006 4.76312e-006 8.85515e-006 -0.0128475 0.00232331 8.51036e-005 9.54166e-015 1.59028e-015 -0 3.17372e-006 4.76312e-006 8.85515e-006 -0.0160662 0.00300798 0.000868146 6.36111e-015 3.18055e-015 9.54166e-015 3.17372e-006 4.76312e-006 8.85515e-006 -0.0125993 0.00312914 0.00284612 1.27222e-014 -7.95139e-015 -0 3.17372e-006 4.76312e-006 8.85515e-006 -1.27543e-005 -8.21938e-006 -6.35722e-006 1.27222e-014 -1.59028e-015 -7.95139e-015 -1.43854 0.726644 -1.56488 -6.4711 34.3901 -18.4489 29.8862 -72.5917 56.2506 5.47263 1.3625 23.9037 -1.98785e-016 -3.18055e-015 1.65985e-014 -9.93923e-017 -3.18055e-015 1.43622e-014 -2.18663e-015 -3.18055e-015 8.05078e-015 -1.98785e-016 -3.18055e-015 1.65985e-014 0.0129338 0.00230987 -8.82124e-005 2.68359e-015 3.18055e-015 -2.48481e-016 -1.98785e-016 -3.18055e-015 1.65985e-014 0.0163032 0.00303365 -0.000873572 1.98785e-015 -3.18055e-015 -3.37934e-015 -1.98785e-016 -3.18055e-015 1.65985e-014 0.0145471 0.00366717 -0.00325853 2.88238e-015 0 3.62782e-015 -1.98785e-016 -3.18055e-015 1.65985e-014 -9.93923e-017 -3.18055e-015 1.43622e-014 -2.18663e-015 -3.18055e-015 8.05078e-015 -35.0918 -30.9662 -23.8045 -91.56 80.9194 88.6936 -7.64905 13.0116 -1.8102 -3.18055e-015 -1.86965e-006 3.18055e-015 25.2525 3.25881 1.17637 -1.99712 6.61842 0.531529 8.72426 13.2051 0.917178 8.60399e-006 -1.91008e-005 2.4146e-006 
